<svg id="visual" viewBox="0 0 4200 450" width="4200" height="450" xmlns="http://www.w3.org/2000/svg" xmlns:xlink="http://www.w3.org/1999/xlink" version="1.1"><rect x="0" y="0" width="4200" height="450" fill="#feefdd"></rect><path d="M0 306L183 338L365 283L548 237L730 243L913 363L1096 346L1278 322L1461 262L1643 300L1826 346L2009 342L2191 241L2374 312L2557 230L2739 362L2922 343L3104 275L3287 237L3470 267L3652 306L3835 243L4017 258L4200 250L4200 451L4017 451L3835 451L3652 451L3470 451L3287 451L3104 451L2922 451L2739 451L2557 451L2374 451L2191 451L2009 451L1826 451L1643 451L1461 451L1278 451L1096 451L913 451L730 451L548 451L365 451L183 451L0 451Z" fill="#255084"></path><path d="M0 339L183 322L365 401L548 362L730 337L913 324L1096 320L1278 312L1461 324L1643 295L1826 272L2009 342L2191 273L2374 294L2557 269L2739 331L2922 327L3104 272L3287 290L3470 285L3652 370L3835 328L4017 364L4200 355L4200 451L4017 451L3835 451L3652 451L3470 451L3287 451L3104 451L2922 451L2739 451L2557 451L2374 451L2191 451L2009 451L1826 451L1643 451L1461 451L1278 451L1096 451L913 451L730 451L548 451L365 451L183 451L0 451Z" fill="#173a61"></path><path d="M0 412L183 352L365 408L548 319L730 380L913 380L1096 421L1278 353L1461 318L1643 364L1826 426L2009 346L2191 426L2374 349L2557 360L2739 342L2922 392L3104 398L3287 368L3470 426L3652 377L3835 332L4017 425L4200 342L4200 451L4017 451L3835 451L3652 451L3470 451L3287 451L3104 451L2922 451L2739 451L2557 451L2374 451L2191 451L2009 451L1826 451L1643 451L1461 451L1278 451L1096 451L913 451L730 451L548 451L365 451L183 451L0 451Z" fill="#0b2540"></path><path d="M0 433L183 388L365 437L548 379L730 389L913 381L1096 402L1278 449L1461 385L1643 407L1826 409L2009 428L2191 411L2374 384L2557 435L2739 379L2922 391L3104 362L3287 396L3470 359L3652 362L3835 363L4017 412L4200 429L4200 451L4017 451L3835 451L3652 451L3470 451L3287 451L3104 451L2922 451L2739 451L2557 451L2374 451L2191 451L2009 451L1826 451L1643 451L1461 451L1278 451L1096 451L913 451L730 451L548 451L365 451L183 451L0 451Z" fill="#011022"></path></svg>